<svg width="512" height="512" viewBox="0 0 512 512" fill="none" xmlns="http://www.w3.org/2000/svg">
<rect width="512" height="512" rx="51" fill="#C80A4E"/>
<path d="M430.911 281.693H311.458C303.532 281.718 295.94 284.862 290.342 290.439C284.742 296.015 281.595 303.57 281.585 311.449V400.524C281.612 408.393 284.769 415.93 290.365 421.494C295.962 427.058 303.543 430.197 311.458 430.222H430.901C438.816 430.197 446.397 427.058 451.993 421.494C457.589 415.93 460.747 408.393 460.774 400.524V341.137H371.247V370.779H416.051V387.108C416.038 390.65 414.617 394.042 412.097 396.545C409.578 399.048 406.165 400.459 402.603 400.467H339.87C336.309 400.455 332.899 399.044 330.382 396.541C327.864 394.038 326.445 390.648 326.435 387.108V324.739C326.45 321.201 327.869 317.812 330.386 315.31C332.903 312.808 336.312 311.396 339.87 311.381H402.535C406.096 311.393 409.506 312.804 412.026 315.306C414.545 317.809 415.966 321.199 415.981 324.739V326.225H460.785V311.381C460.759 303.513 457.604 295.974 452.008 290.411C446.41 284.849 438.826 281.714 430.911 281.693Z" fill="white"/>
<path fill-rule="evenodd" clip-rule="evenodd" d="M178.835 370.807L230.398 430.222H171.217L119.654 370.807H95.9991V430.222H51.198V281.693H200.528C208.441 281.717 216.022 284.854 221.62 290.418C227.216 295.983 230.371 303.524 230.398 311.395V341.164C230.368 349.033 227.212 356.572 221.616 362.136C216.02 367.701 208.439 370.839 200.528 370.864L178.835 370.807ZM96.0096 311.395H174.409C180.569 311.395 185.61 318.077 185.61 326.245C185.61 334.414 180.556 341.107 174.409 341.107H96.0096V311.395Z" fill="white"/>
<path d="M415.947 81.9453H460.751L460.785 230.44H415.983L326.376 127.382V230.474H281.585V81.968H326.34L415.947 185.025V81.9453Z" fill="white"/>
<path d="M200.527 81.9453H81.0685C73.1548 81.9663 65.5711 85.1019 59.9742 90.6672C54.3773 96.2322 51.2221 103.775 51.198 111.647V141.359C51.2221 149.231 54.3773 156.774 59.9742 162.338C65.5711 167.904 73.1548 171.04 81.0685 171.059H174.398C180.557 171.059 185.598 177.743 185.598 185.912C185.598 194.078 180.557 200.762 174.398 200.762H107.198C101.028 200.762 95.998 194.078 95.998 185.912H51.198V200.762C51.2191 208.635 54.3729 216.18 59.9701 221.748C65.5674 227.315 73.1527 230.453 81.0685 230.474H200.527C208.442 230.451 216.026 227.313 221.623 221.744C227.219 216.178 230.374 208.635 230.398 200.762V171.059C230.374 163.189 227.219 155.646 221.622 150.081C216.025 144.515 208.441 141.38 200.527 141.359H107.198C101.028 141.359 95.998 134.665 95.998 126.497C95.998 118.329 101.039 111.647 107.198 111.647H174.387C180.545 111.647 185.587 118.329 185.587 126.497H230.398V111.647C230.374 103.775 227.219 96.2322 221.622 90.6672C216.025 85.1019 208.441 81.9663 200.527 81.9453Z" fill="white"/>
</svg>
