<?xml version="1.0"?>
<svg width="512" height="512" xmlns="http://www.w3.org/2000/svg" xmlns:svg="http://www.w3.org/2000/svg" enable-background="new 0 0 512 512" version="1.1" xml:space="preserve">
 <g class="layer">
  <title>Layer 1</title>
  <path d="m513,202c0,103.97 0,207.45 0,310.96c-170.6,0 -341.2,0 -511.9,0c0,-170.52 0,-341.08 0,-511.8c170.57,0 341.23,0 511.9,0c0,66.71 0,133.52 0,200.84m-103.07,-115.06c5.32,0 10.63,0 15.95,0c0,-0.65 0,-1.29 0,-1.94c-5.63,0 -11.25,0 -17.82,0c-105.96,0 -211.93,0 -317.89,0c-0.03,0.66 -0.05,1.31 -0.08,1.97c1.85,0 3.7,0 5.54,0c47.31,0 94.63,0.01 141.94,0c57.14,-0.01 114.29,-0.05 172.36,-0.03m-322.4,206.91c-4.3,-0.1 -2.44,3.23 -2.44,4.96c-0.12,40.77 -0.1,81.54 -0.08,122.31c0,1.7 0.22,3.4 0.38,5.7c1.44,-0.98 2.11,-1.43 3.39,-1.48c2.33,0.82 4.67,2.34 7.01,2.35c40.46,0.14 80.92,0.09 121.38,0.08c6.95,0 6.97,0.01 6.97,-6.85c0,-40.96 -0.07,-81.92 0.08,-122.88c0.01,-4.32 -1.08,-5.75 -5.57,-5.73c-41.29,0.15 -82.58,0.06 -123.88,0.16c-2.19,0 -4.39,1.04 -7.24,1.38m316.97,133.93c5.17,0 10.33,-0.01 15.5,0c7.7,0 7.77,-0.07 7.77,-7.86c0,-107.65 0.01,-215.3 0.02,-322.95c0,-8.13 0.02,-8.13 -7.98,-8.13c-107.82,0 -215.64,0 -323.45,0c-7.36,0 -7.52,0.17 -7.52,7.59c0,40.16 0.01,80.32 0,120.48c0,7.22 -0.03,7.22 7.12,7.22c62.99,0.01 125.98,0 188.97,0c7.47,0 7.47,0.01 7.47,7.46c0,63.15 0,126.31 0,189.47c0,6.69 0.07,6.73 6.62,6.73c34.82,-0.01 69.65,-0.01 105.48,-0.01m-319.5,-214.33c0,3.15 0,6.3 0,9.45c0.43,-0.02 0.87,-0.05 1.3,-0.07c0,-44.22 0,-88.44 0,-132.65c-0.43,0 -0.87,0 -1.3,0c0,40.76 0,81.52 0,123.27z" fill="#DB2A1E" id="svg_1" opacity="1"/>
  <path d="m409,86.89c-57.14,0.03 -114.29,0.07 -171.43,0.08c-47.31,0.01 -94.63,0 -141.94,0c-1.84,0 -3.69,0 -5.54,0c0.03,-0.66 0.05,-1.31 0.08,-1.97c105.96,0 211.93,0 318.36,0.32c0.47,0.73 0.47,1.15 0.47,1.57z" fill="#D92115" id="svg_4" opacity="1"/>
  <path d="m87.86,293.96c0.48,0.92 0.75,1.73 0.75,2.54c-0.02,42.52 -0.05,85.04 -0.26,127.99c-0.85,0.9 -1.52,1.35 -2.96,2.33c-0.16,-2.3 -0.38,-4 -0.38,-5.7c-0.02,-40.77 -0.04,-81.54 0.08,-122.31c0,-1.73 -1.86,-5.06 2.77,-4.85z" fill="#D92115" id="svg_5" opacity="1"/>
  <path d="m85,212.95c0,-41.25 0,-82.01 0,-122.77c0.43,0 0.87,0 1.3,0c0,44.21 0,88.43 0,132.65c-0.43,0.02 -0.87,0.05 -1.3,0.07c0,-3.15 0,-6.3 0,-9.95z" fill="#D82115" id="svg_6" opacity="1"/>
  <path d="m409.46,86.92c-0.46,-0.45 -0.46,-0.87 -0.46,-1.6c5.63,-0.32 11.25,-0.32 16.88,-0.32c0,0.65 0,1.29 0,1.94c-5.32,0 -10.63,0 -16.42,-0.02z" fill="#D92214" id="svg_7" opacity="1"/>
 </g>
</svg>